PathFileType	4	(X/Y/Z)	 0.06m3min.trc
DataRate	CameraRate	NumFrames	NumMarkers	Units	OrigDataRate	OrigDataStartFrame	OrigNumFrames
200	200	10	34	m	200	376	1000
Frame#	Time	LSH			RSH			MAN			RASI			LASI			HIPR			HIPL			RPSI			LPSI			COX			RTHI1			RTHI2			RTHI3			RTHI4			RSHA1			RSHA2			RSHA3			RSHA4			RHEEL			RMET5			RMET1			RTOE			LTHI1			LTHI2			LTHI3			LTHI4			LSHA1			LSHA2			LSHA3			LSHA4			LHEEL			LMET5			LMET1			LTOE			
		X1	Y1	Z1	X2	Y2	Z2	X3	Y3	Z3	X4	Y4	Z4	X5	Y5	Z5	X6	Y6	Z6	X7	Y7	Z7	X8	Y8	Z8	X9	Y9	Z9	X10	Y10	Z10	X11	Y11	Z11	X12	Y12	Z12	X13	Y13	Z13	X14	Y14	Z14	X15	Y15	Z15	X16	Y16	Z16	X17	Y17	Z17	X18	Y18	Z18	X19	Y19	Z19	X20	Y20	Z20	X21	Y21	Z21	X22	Y22	Z22	X23	Y23	Z23	X24	Y24	Z24	X25	Y25	Z25	X26	Y26	Z26	X27	Y27	Z27	X28	Y28	Z28	X29	Y29	Z29	X30	Y30	Z30	X31	Y31	Z31	X32	Y32	Z32	X33	Y33	Z33	X34	Y34	Z34	
376	1.8800	-0.216911	1.473229	-0.700141	-0.250381	1.445381	-0.368547	-0.167049	1.430693	-0.528917	-0.129307	1.023472	-0.420406	-0.112303	1.020437	-0.646496	-0.183110	1.072783	-0.399416	-0.163462	1.067933	-0.675988	-0.281585	1.054642	-0.487276	-0.272363	1.054449	-0.600528	-0.283532	1.057125	-0.543330	-0.230746	0.814252	-0.371051	-0.208384	0.758685	-0.363572	-0.148871	0.779860	-0.350132	-0.163324	0.839448	-0.356047	-0.247434	0.393116	-0.353683	-0.257873	0.351880	-0.362710	-0.198497	0.342252	-0.358063	-0.191292	0.381983	-0.354769	-0.320431	0.158248	-0.410338	-0.193179	0.058846	-0.357679	-0.167844	0.062560	-0.417631	-0.145412	0.049821	-0.410513	-0.193391	0.826381	-0.712890	-0.173414	0.768007	-0.712401	-0.110391	0.783779	-0.706359	-0.122854	0.842163	-0.707042	-0.235925	0.398637	-0.712658	-0.251613	0.361497	-0.710639	-0.191226	0.343705	-0.707464	-0.183213	0.387062	-0.710444	-0.332193	0.149340	-0.667488	-0.205428	0.062645	-0.719968	-0.171546	0.059536	-0.657264	-0.151464	0.049102	-0.664587	
377	1.8850	-0.216328	1.470998	-0.700393	-0.249814	1.443138	-0.368299	-0.166580	1.428616	-0.528805	-0.129538	1.021687	-0.420206	-0.112460	1.018546	-0.646382	-0.183503	1.070824	-0.399356	-0.163730	1.065803	-0.675844	-0.281987	1.052115	-0.487265	-0.272722	1.051789	-0.600452	-0.283415	1.054449	-0.543570	-0.230262	0.812248	-0.371009	-0.207716	0.756725	-0.363618	-0.148200	0.778046	-0.350460	-0.162845	0.837605	-0.356228	-0.246663	0.391474	-0.353870	-0.257405	0.350299	-0.362912	-0.197975	0.340409	-0.358495	-0.190617	0.380118	-0.355156	-0.320926	0.156891	-0.410702	-0.193532	0.057616	-0.357912	-0.168132	0.061258	-0.417869	-0.145672	0.048393	-0.410732	-0.192603	0.824421	-0.712940	-0.172463	0.766145	-0.712230	-0.109549	0.782096	-0.705611	-0.122169	0.840438	-0.706521	-0.234538	0.396959	-0.712637	-0.250395	0.359895	-0.710636	-0.190113	0.341868	-0.707036	-0.181896	0.385179	-0.710049	-0.332270	0.148211	-0.667570	-0.205582	0.060496	-0.718859	-0.171880	0.057883	-0.656078	-0.151830	0.047167	-0.663259	
378	1.8900	-0.215661	1.468508	-0.700649	-0.249223	1.440654	-0.368059	-0.166034	1.426263	-0.528726	-0.129773	1.019673	-0.420003	-0.112632	1.016426	-0.646256	-0.183903	1.068642	-0.399293	-0.164030	1.063440	-0.675702	-0.282392	1.049324	-0.487238	-0.273099	1.048870	-0.600367	-0.283419	1.051521	-0.543734	-0.229750	0.810092	-0.370931	-0.206972	0.754541	-0.363671	-0.147453	0.776013	-0.350786	-0.162289	0.835537	-0.356433	-0.245911	0.389630	-0.354108	-0.256972	0.348523	-0.363063	-0.197487	0.338361	-0.358932	-0.189962	0.378033	-0.355550	-0.321493	0.155454	-0.411117	-0.194150	0.055982	-0.358292	-0.168647	0.059622	-0.418224	-0.146198	0.046580	-0.411060	-0.191759	0.822289	-0.712978	-0.171460	0.764091	-0.712044	-0.108662	0.780219	-0.704821	-0.121434	0.838527	-0.705924	-0.233072	0.395052	-0.712683	-0.249130	0.358060	-0.710706	-0.188973	0.339769	-0.706585	-0.180525	0.383031	-0.709649	-0.332403	0.146903	-0.667660	-0.205789	0.058098	-0.717610	-0.172299	0.055994	-0.654741	-0.152278	0.044960	-0.661752	
379	1.8950	-0.214923	1.465764	-0.700902	-0.248615	1.437938	-0.367836	-0.165431	1.423638	-0.528676	-0.130012	1.017425	-0.419802	-0.112823	1.014075	-0.646122	-0.184318	1.066225	-0.399217	-0.164364	1.060841	-0.675564	-0.282800	1.046275	-0.487197	-0.273490	1.045706	-0.600270	-0.283541	1.048347	-0.543830	-0.229065	0.807620	-0.370920	-0.206146	0.752126	-0.363719	-0.146629	0.773762	-0.351107	-0.161654	0.833241	-0.356653	-0.245190	0.387581	-0.354398	-0.256586	0.346539	-0.363256	-0.197035	0.336113	-0.359363	-0.189321	0.375736	-0.355948	-0.322125	0.153918	-0.411599	-0.195027	0.053949	-0.358821	-0.169369	0.057668	-0.418678	-0.146967	0.044395	-0.411483	-0.190854	0.819970	-0.712996	-0.170408	0.761830	-0.711843	-0.107730	0.778133	-0.703991	-0.120653	0.836409	-0.705256	-0.231546	0.392918	-0.712782	-0.247831	0.356003	-0.710824	-0.187818	0.337428	-0.706116	-0.179114	0.380620	-0.709244	-0.332578	0.145425	-0.667768	-0.206042	0.055463	-0.716249	-0.172807	0.053854	-0.653269	-0.152816	0.042480	-0.660083	
380	1.9000	-0.214130	1.462780	-0.701143	-0.247992	1.434998	-0.367636	-0.164780	1.420738	-0.528657	-0.130253	1.014934	-0.419601	-0.113033	1.011493	-0.645984	-0.184734	1.063559	-0.399130	-0.164730	1.058003	-0.675442	-0.283208	1.042978	-0.487141	-0.273894	1.042307	-0.600158	-0.283774	1.044941	-0.543857	-0.228274	0.804856	-0.370765	-0.205241	0.749472	-0.363756	-0.145730	0.771277	-0.351423	-0.160948	0.830710	-0.356887	-0.244499	0.385326	-0.354753	-0.256196	0.344351	-0.363517	-0.196611	0.333655	-0.359790	-0.188701	0.373226	-0.356347	-0.322841	0.152240	-0.412115	-0.196143	0.051544	-0.359489	-0.170276	0.055429	-0.419221	-0.147962	0.041896	-0.412010	-0.189894	0.817439	-0.712998	-0.169301	0.759342	-0.711619	-0.106755	0.775819	-0.703127	-0.119823	0.834069	-0.704521	-0.229978	0.390556	-0.712906	-0.246505	0.353736	-0.710962	-0.186649	0.334838	-0.705615	-0.177671	0.377967	-0.708828	-0.332785	0.143781	-0.667894	-0.206357	0.052610	-0.714835	-0.173426	0.051489	-0.651679	-0.153460	0.039845	-0.658270	
381	1.9050	-0.213325	1.459566	-0.701359	-0.247353	1.431833	-0.367459	-0.164118	1.417581	-0.528656	-0.130497	1.012208	-0.419407	-0.113266	1.008671	-0.645850	-0.185154	1.060648	-0.399029	-0.165133	1.054923	-0.675341	-0.283611	1.039431	-0.487078	-0.274308	1.038682	-0.600035	-0.284115	1.041318	-0.543807	-0.227491	0.801988	-0.370839	-0.204260	0.746587	-0.363774	-0.144758	0.768550	-0.351725	-0.160173	0.827942	-0.357084	-0.243830	0.382864	-0.355114	-0.255793	0.341950	-0.363868	-0.196203	0.330981	-0.360219	-0.188092	0.370499	-0.356739	-0.323638	0.150395	-0.412682	-0.197480	0.048802	-0.360264	-0.171345	0.052964	-0.419887	-0.149135	0.039255	-0.412686	-0.188878	0.814676	-0.712989	-0.168139	0.756614	-0.711373	-0.105738	0.773266	-0.702233	-0.118955	0.831490	-0.703730	-0.228382	0.387971	-0.713035	-0.245163	0.351247	-0.711100	-0.185479	0.332011	-0.705091	-0.176212	0.375071	-0.708399	-0.333035	0.141955	-0.667991	-0.206771	0.049622	-0.713479	-0.174169	0.048962	-0.650045	-0.154199	0.037187	-0.656401	
382	1.9100	-0.212540	1.456130	-0.701541	-0.246702	1.428445	-0.367301	-0.163473	1.414168	-0.528663	-0.130743	1.009240	-0.419221	-0.113519	1.005614	-0.645723	-0.185582	1.057471	-0.398910	-0.165568	1.051594	-0.675263	-0.284006	1.035653	-0.487007	-0.274731	1.034839	-0.599900	-0.284558	1.037486	-0.543691	-0.226630	0.798717	-0.370608	-0.203217	0.743444	-0.363770	-0.143723	0.765594	-0.352012	-0.159339	0.824936	-0.357244	-0.243179	0.380187	-0.355468	-0.255385	0.339358	-0.364250	-0.195815	0.328087	-0.360642	-0.187483	0.367539	-0.357131	-0.324534	0.148358	-0.413322	-0.199028	0.045830	-0.361074	-0.172543	0.050381	-0.420700	-0.150415	0.036641	-0.413520	-0.187811	0.811661	-0.712979	-0.166926	0.753631	-0.711113	-0.104679	0.770449	-0.701301	-0.118047	0.828651	-0.702887	-0.226775	0.385146	-0.713152	-0.243814	0.348542	-0.711228	-0.184309	0.328961	-0.704547	-0.174750	0.371948	-0.707959	-0.333376	0.139907	-0.668013	-0.207292	0.046633	-0.712328	-0.175013	0.046374	-0.648488	-0.154992	0.034674	-0.654589	
383	1.9150	-0.211787	1.452478	-0.701683	-0.246043	1.424840	-0.367144	-0.162870	1.410499	-0.528669	-0.130990	1.006026	-0.419044	-0.113797	1.002315	-0.645608	-0.186009	1.054025	-0.398769	-0.166030	1.048015	-0.675206	-0.284397	1.031642	-0.486928	-0.275161	1.030785	-0.599758	-0.284997	1.033426	-0.543565	-0.225739	0.795236	-0.370565	-0.202116	0.740040	-0.363731	-0.142639	0.762393	-0.352286	-0.158469	0.821681	-0.357350	-0.242562	0.377301	-0.355793	-0.254988	0.336563	-0.364698	-0.195454	0.324952	-0.361054	-0.186889	0.364331	-0.357507	-0.325552	0.146085	-0.414052	-0.200696	0.042804	-0.361818	-0.173808	0.047809	-0.421625	-0.151689	0.034245	-0.414507	-0.186692	0.808373	-0.712947	-0.165664	0.750383	-0.710841	-0.103584	0.767361	-0.700335	-0.117102	0.825540	-0.702019	-0.225170	0.382094	-0.713256	-0.242466	0.345622	-0.711335	-0.183150	0.325684	-0.703992	-0.173296	0.368606	-0.707508	-0.333877	0.137590	-0.667890	-0.207895	0.043809	-0.711514	-0.175900	0.043897	-0.647108	-0.155780	0.032514	-0.652939	
384	1.9200	-0.211059	1.448614	-0.701788	-0.245369	1.421013	-0.366977	-0.162299	1.406577	-0.528672	-0.131238	1.002566	-0.418876	-0.114097	0.998777	-0.645508	-0.186443	1.050306	-0.398627	-0.166518	1.044190	-0.675176	-0.284788	1.027405	-0.486837	-0.275601	1.026520	-0.599612	-0.285432	1.029146	-0.543427	-0.224758	0.791544	-0.370487	-0.200976	0.736363	-0.363670	-0.141521	0.758934	-0.352543	-0.157579	0.818169	-0.357405	-0.241958	0.374220	-0.356049	-0.254608	0.333575	-0.365133	-0.195123	0.321560	-0.361477	-0.186310	0.360857	-0.357867	-0.326730	0.143528	-0.414872	-0.202356	0.039918	-0.362346	-0.175052	0.045392	-0.422595	-0.152842	0.032251	-0.415617	-0.185531	0.804793	-0.712900	-0.164353	0.746851	-0.710553	-0.102458	0.764002	-0.699349	-0.116124	0.822148	-0.701137	-0.223588	0.378813	-0.713341	-0.241141	0.342483	-0.711432	-0.182030	0.322178	-0.703432	-0.171872	0.365043	-0.707049	-0.334650	0.135004	-0.667616	-0.208555	0.041350	-0.711107	-0.176784	0.041723	-0.645990	-0.156499	0.030889	-0.651553	
385	1.9250	-0.210357	1.444541	-0.701855	-0.244682	1.416968	-0.366801	-0.161748	1.402404	-0.528671	-0.131484	0.998862	-0.418717	-0.114416	0.995008	-0.645423	-0.186915	1.046326	-0.398471	-0.167031	1.040119	-0.675169	-0.285183	1.022950	-0.486730	-0.276052	1.022057	-0.599462	-0.285865	1.024655	-0.543279	-0.223847	0.787439	-0.370263	-0.199813	0.732406	-0.363574	-0.140387	0.755225	-0.352783	-0.156686	0.814400	-0.357407	-0.241381	0.370933	-0.356263	-0.254293	0.330417	-0.365473	-0.194840	0.317926	-0.361921	-0.185760	0.357139	-0.358249	-0.328123	0.140681	-0.415803	-0.203891	0.037361	-0.362558	-0.176194	0.043279	-0.423521	-0.153763	0.030792	-0.416748	-0.184332	0.800911	-0.712839	-0.162999	0.743028	-0.710252	-0.101300	0.760362	-0.698352	-0.115126	0.818470	-0.700260	-0.222057	0.375328	-0.713411	-0.239880	0.339134	-0.711515	-0.180994	0.318457	-0.702870	-0.170509	0.361253	-0.706585	-0.335778	0.132194	-0.667224	-0.209241	0.039413	-0.711077	-0.177606	0.039961	-0.645219	-0.157090	0.029757	-0.650536	
